<?xml version="1.0" encoding="utf-8"?>
<!-- Generator: Adobe Illustrator 15.1.0, SVG Export Plug-In . SVG Version: 6.00 Build 0)  -->
<!DOCTYPE svg PUBLIC "-//W3C//DTD SVG 1.1//EN" "http://www.w3.org/Graphics/SVG/1.1/DTD/svg11.dtd" [
	<!ENTITY st0 "font-family:'LinLibertineO';">
	<!ENTITY st1 "fill:#95C11F;stroke:#EEDFB3;stroke-width:4;stroke-miterlimit:10;">
	<!ENTITY st2 "fill:#DEA030;stroke:#EEDFB3;stroke-width:4;stroke-miterlimit:10;">
	<!ENTITY st3 "fill:#292728;stroke:#B6A699;stroke-width:4;stroke-miterlimit:10;">
	<!ENTITY st4 "fill:#B34071;">
	<!ENTITY st5 "fill:#B6A699;">
	<!ENTITY st6 "fill:#EEDFB3;">
	<!ENTITY st7 "fill:none;stroke:#EEDFB3;stroke-width:4;stroke-miterlimit:10;">
	<!ENTITY st8 "fill:#BE1622;">
	<!ENTITY st9 "fill:#BF5A3B;">
	<!ENTITY st10 "fill:#232222;">
	<!ENTITY st11 "fill:#268E63;">
	<!ENTITY st12 "fill:#4161AB;stroke:#EEDFB3;stroke-width:4;stroke-miterlimit:10;">
	<!ENTITY st13 "fill:none;stroke:#BF5A3B;stroke-width:4;stroke-miterlimit:10;">
	<!ENTITY st14 "fill:none;stroke:#634E42;stroke-miterlimit:10;">
	<!ENTITY st15 "fill:#95C11F;">
	<!ENTITY st16 "letter-spacing:30;">
	<!ENTITY st17 "fill:none;">
	<!ENTITY st18 "fill:none;stroke:#B34071;stroke-width:4;stroke-miterlimit:10;">
	<!ENTITY st19 "fill:#EEDFB3;stroke:#BF5A3B;stroke-width:4;stroke-miterlimit:10;">
	<!ENTITY st20 "font-family:'LinLibertineOI';">
	<!ENTITY st21 "letter-spacing:3;">
	<!ENTITY st22 "letter-spacing:4;">
	<!ENTITY st23 "letter-spacing:7;">
	<!ENTITY st24 "font-family:'CallunaSans-Regular';">
	<!ENTITY st25 "fill:#D07759;">
	<!ENTITY st26 "fill:none;stroke:#268E63;stroke-width:4;stroke-miterlimit:10;">
	<!ENTITY st27 "font-size:14;">
	<!ENTITY st28 "font-size:16;">
	<!ENTITY st29 "font-size:18;">
	<!ENTITY st30 "font-size:21;">
	<!ENTITY st31 "font-size:24;">
	<!ENTITY st32 "font-size:30;">
	<!ENTITY st33 "font-size:36;">
	<!ENTITY st34 "font-size:42;">
	<!ENTITY st35 "fill:#EEDFB3;stroke:#B34071;stroke-width:4;stroke-miterlimit:10;">
	<!ENTITY st36 "fill:none;stroke:#634E42;stroke-miterlimit:10;stroke-dasharray:2.9975,2.9975;">
	<!ENTITY st37 "fill:#292728;stroke:#EEDFB3;stroke-width:4;stroke-miterlimit:10;">
	<!ENTITY st38 "fill:#D07759;stroke:#EEDFB3;stroke-width:4;stroke-miterlimit:10;">
	<!ENTITY st39 "fill:none;stroke:#634E42;stroke-miterlimit:10;stroke-dasharray:2.9973,2.9973;">
	<!ENTITY st40 "fill:#DEA030;">
	<!ENTITY st41 "fill:#4161AB;">
	<!ENTITY st42 "fill:#EEDFB3;stroke:#268E63;stroke-width:4;stroke-miterlimit:10;">
	<!ENTITY st43 "fill:none;stroke:#B6A699;stroke-miterlimit:10;stroke-dasharray:1,2;">
]>
<svg version="1.1" xmlns="http://www.w3.org/2000/svg" xmlns:xlink="http://www.w3.org/1999/xlink" x="0px" y="0px"
	 width="1678.11px" height="1190.55px" viewBox="0 0 1678.11 1190.55" style="enable-background:new 0 0 1678.11 1190.55;"
	 xml:space="preserve">
<g id="back">
	<rect x="-11.339" y="-11.339" style="&st10;" width="1700.788" height="1213.228"/>
</g>
<g id="graph">
	<g>
		<g>
			<line style="&st14;" x1="249.167" y1="492.596" x2="250.667" y2="492.596"/>
			<line style="&st36;" x1="253.664" y1="492.596" x2="1577.055" y2="492.596"/>
			<line style="&st14;" x1="1578.554" y1="492.596" x2="1580.054" y2="492.596"/>
		</g>
	</g>
	<polyline style="&st7;" points="108.628,644.588 251.121,644.588 251.121,494.596 491.108,494.596 491.108,644.588 
		794.093,644.588 794.093,494.596 897.588,494.596 897.588,644.588 1116.579,644.588 1116.579,494.596 1227.572,494.596 
		1227.572,644.588 1364.065,644.588 1364.065,494.596 1580.054,494.596 	"/>
	<g>
		<g>
			<line style="&st14;" x1="131.118" y1="646.5" x2="132.618" y2="646.5"/>
			<line style="&st39;" x1="135.615" y1="646.5" x2="1363.001" y2="646.5"/>
			<line style="&st14;" x1="1364.5" y1="646.5" x2="1366" y2="646.5"/>
		</g>
	</g>
	<line style="&st43;" x1="108.628" y1="635.837" x2="108.628" y2="146"/>
	<line style="&st43;" x1="184.628" y1="866" x2="184.628" y2="644.588"/>
	<rect x="196" y="710" style="&st17;" width="325.107" height="156"/>
	<text transform="matrix(1 0 0 1 196 722.8516)"><tspan x="0" y="0" style="&st6; &st24; &st29;">Meet the Hero</tspan><tspan x="0" y="16.8" style="&st5; &st0; &st27;">You have to understand the hero, your audience.</tspan><tspan x="0" y="33.601" style="&st5; &st0; &st27;">What is their…</tspan><tspan x="0" y="50.4" style="&st5; &st0; &st27;">▶</tspan><tspan x="7.14" y="50.4" style="&st5; &st0; &st27; &st21;"> </tspan><tspan x="14.14" y="50.4" style="&st6; &st0; &st27;">lifestyle?</tspan><tspan x="65.365" y="50.4" style="&st5; &st0; &st27;"> how do they live day-to-day</tspan><tspan x="0" y="67.2" style="&st5; &st0; &st27;">▶</tspan><tspan x="7.14" y="67.2" style="&st5; &st0; &st27; &st21;"> </tspan><tspan x="14.14" y="67.2" style="&st6; &st0; &st27;">knowledge? </tspan><tspan x="86.295" y="67.2" style="&st5; &st0; &st27;">relating to the mentor (you)</tspan><tspan x="0" y="84" style="&st5; &st0; &st27;">▶</tspan><tspan x="7.14" y="84" style="&st5; &st0; &st27; &st21;"> </tspan><tspan x="14.14" y="84" style="&st6; &st0; &st27;">desire, motivation? </tspan><tspan x="126.923" y="84" style="&st5; &st0; &st27;">that gets them out of bed</tspan><tspan x="0" y="100.8" style="&st5; &st0; &st27;">▶</tspan><tspan x="7.14" y="100.8" style="&st5; &st0; &st27; &st21;"> </tspan><tspan x="14.14" y="100.8" style="&st6; &st0; &st27;">values?</tspan><tspan x="56.434" y="100.8" style="&st5; &st0; &st27;"> what they spend time and money on</tspan><tspan x="0" y="117.601" style="&st5; &st0; &st27;">▶</tspan><tspan x="7.14" y="117.601" style="&st5; &st0; &st27; &st21;"> </tspan><tspan x="14.14" y="117.601" style="&st6; &st0; &st27;">influences? </tspan><tspan x="81.661" y="117.601" style="&st5; &st0; &st27;">what do they admire and seek</tspan><tspan x="0" y="134.4" style="&st5; &st0; &st27;">▶</tspan><tspan x="7.14" y="134.4" style="&st5; &st0; &st27; &st21;"> </tspan><tspan x="14.14" y="134.4" style="&st6; &st0; &st27;">conception of respect? </tspan><tspan x="146.004" y="134.4" style="&st5; &st0; &st27;">to make them feel respected</tspan></text>
	<text transform="matrix(1 0 0 1 610 633.5869)" style="&st5; &st20; &st29;">what is</text>
	<text transform="matrix(1 0 0 1 583 485.5869)" style="&st5; &st20; &st29;">what could be</text>
	<line style="&st43;" x1="251.121" y1="492.596" x2="251.121" y2="312.5"/>
	<rect x="264.125" y="318" style="&st17;" width="318.875" height="139.209"/>
	<text transform="matrix(1 0 0 1 264.125 332.9941)"><tspan x="0" y="0" style="&st41; &st24; &st30;">Call to Adventure</tspan><tspan x="0" y="21.6" style="&st5; &st0; &st29;">This is a turning point, capturing the </tspan><tspan x="0" y="43.199" style="&st5; &st0; &st29;">audience’s intrigue and interest. The gap </tspan><tspan x="0" y="64.8" style="&st5; &st0; &st29;">have to be clear: this is a totally changed </tspan><tspan x="0" y="86.399" style="&st5; &st0; &st29;">world that we envision here, building </tspan><tspan x="0" y="108" style="&st5; &st0; &st29;">desire in the hero’s heart.</tspan></text>
	<circle style="&st3;" cx="954.229" cy="658.439" r="133.389"/>
	<polyline style="&st7;" points="877.154,549.56 877.154,708 1077.347,708 	"/>
	<line style="&st18;" x1="890" y1="708" x2="948" y2="708"/>
	<line style="&st26;" x1="980" y1="708" x2="1062.5" y2="708"/>
	<rect x="659" y="906.818" style="&st17;" width="247" height="101.5"/>
	<text transform="matrix(1 0 0 1 735.4194 921.8125)"><tspan x="0" y="0" style="&st4; &st24; &st30;">Emotional </tspan><tspan x="93.87" y="0" style="&st6; &st24; &st30;">Contrast</tspan><tspan x="-39.998" y="21.6" style="&st5; &st0; &st29;">Alternance between analytic </tspan><tspan x="-25.023" y="43.199" style="&st5; &st0; &st29;">content and stories let you </tspan><tspan x="-27.039" y="64.8" style="&st5; &st0; &st29;">connect with the audience.</tspan></text>
	<rect x="689" y="1041.305" style="&st17;" width="324.5" height="67.288"/>
	<text transform="matrix(1 0 0 1 860.2656 1056.2988)"><tspan x="0" y="0" style="&st11; &st24; &st30;">Delivery </tspan><tspan x="76.522" y="0" style="&st6; &st24; &st30;">Contrast</tspan><tspan x="-149.612" y="21.6" style="&st5; &st0; &st29;">Using non traditionnal methods creates a </tspan><tspan x="-170.797" y="43.199" style="&st5; &st0; &st29;">dynamism that keeps the audience engaged.</tspan></text>
	<rect x="1141.061" y="967.734" style="&st17;" width="430.001" height="99.834"/>
	<text transform="matrix(1 0 0 1 1340.6885 984.8701)"><tspan x="0" y="0" style="&st25; &st24; &st31;">Crossing the Threshold</tspan><tspan x="-143.248" y="21.6" style="&st5; &st0; &st29;">For the audience, the end of the presentation is the </tspan><tspan x="-198.616" y="43.2" style="&st5; &st0; &st29;">beginning of a journey in a special world. Now commiting </tspan><tspan x="-133.114" y="64.8" style="&st5; &st0; &st29;">to your idea, will they strive to change the world.</tspan></text>
	<line style="&st43;" x1="1586.054" y1="501.227" x2="1586.054" y2="1055"/>
	<polyline style="&st43;" points="851,866 851,636 877.154,636 	"/>
	<rect x="621" y="780.818" style="&st17;" width="218.055" height="97.498"/>
	<text transform="matrix(1 0 0 1 684.4131 795.8125)"><tspan x="0" y="0" style="&st9; &st24; &st30;">Content </tspan><tspan x="77.93" y="0" style="&st6; &st24; &st30;">Contrast</tspan><tspan x="-49.259" y="21.6" style="&st5; &st0; &st29;">Alternance between </tspan><tspan x="102.821" y="21.6" style="&st5; &st20; &st29;">what is</tspan><tspan x="154.643" y="21.6" style="&st5; &st0; &st29;"> </tspan><tspan x="-59.627" y="43.199" style="&st5; &st0; &st29;">and </tspan><tspan x="-28.038" y="43.199" style="&st5; &st20; &st29;">what could be</tspan><tspan x="70.799" y="43.199" style="&st5; &st0; &st29;"> creates the </tspan><tspan x="-38.999" y="64.8" style="&st5; &st0; &st29;">audience desire of change.</tspan></text>
	<rect x="927.161" y="172" style="&st17;" width="284.757" height="137.103"/>
	<text transform="matrix(1 0 0 1 927.1611 184.8516)"><tspan x="0" y="0" style="&st6; &st24; &st29;">Meet the Mentor</tspan><tspan x="0" y="16.8" style="&st5; &st0; &st27;">As a mentor, to guide the audience though its </tspan><tspan x="0" y="33.601" style="&st5; &st0; &st27;">journey, are you going to bring…</tspan><tspan x="0" y="50.4" style="&st5; &st0; &st27;">▶</tspan><tspan x="7.14" y="50.4" style="&st5; &st0; &st27; &st21;"> </tspan><tspan x="14.14" y="50.4" style="&st6; &st0; &st27;">guidance?</tspan><tspan x="71.777" y="50.4" style="&st5; &st0; &st27;"> new knowledge and insights</tspan><tspan x="0" y="67.2" style="&st5; &st0; &st27;">▶</tspan><tspan x="7.14" y="67.2" style="&st5; &st0; &st27; &st21;"> </tspan><tspan x="14.14" y="67.2" style="&st6; &st0; &st27;">confidence? </tspan><tspan x="85.385" y="67.2" style="&st5; &st0; &st27;">to propel them on their journey</tspan><tspan x="0" y="84" style="&st5; &st0; &st27;">▶</tspan><tspan x="7.14" y="84" style="&st5; &st0; &st27; &st21;"> </tspan><tspan x="14.14" y="84" style="&st6; &st0; &st27;">tools? </tspan><tspan x="51.422" y="84" style="&st5; &st0; &st27;">that they will use to succeed</tspan></text>
	<rect x="1166.666" y="706.646" style="&st17;" width="341.334" height="227.426"/>
	<text transform="matrix(1 0 0 1 1166.666 719.498)"><tspan x="0" y="0" style="&st6; &st24; &st29;">The New Bliss</tspan><tspan x="0" y="16.799" style="&st5; &st0; &st27;">To the audience, what are going to be the benefits…</tspan><tspan x="0" y="33.6" style="&st5; &st0; &st27;">▶</tspan><tspan x="7.141" y="33.6" style="&st5; &st0; &st27; &st21;"> </tspan><tspan x="14.141" y="33.6" style="&st6; &st0; &st27;">personally?</tspan><tspan x="80.065" y="33.6" style="&st5; &st0; &st27;"> materially or emotionally</tspan><tspan x="0" y="50.4" style="&st5; &st0; &st27;">▶</tspan><tspan x="7.141" y="50.4" style="&st5; &st0; &st27; &st21;"> </tspan><tspan x="14.141" y="50.4" style="&st6; &st0; &st27;">to their sphere? </tspan><tspan x="107.406" y="50.4" style="&st5; &st0; &st27;">of influence, friends, peers, students…</tspan><tspan x="0" y="67.199" style="&st5; &st0; &st27;">▶</tspan><tspan x="7.141" y="67.199" style="&st5; &st0; &st27; &st21;"> </tspan><tspan x="14.141" y="67.199" style="&st6; &st0; &st27;">to the mankind? </tspan><tspan x="111.104" y="67.199" style="&st5; &st0; &st27;">how the whole world is changed</tspan><tspan x="0" y="100.799" style="&st5; &st0; &st27;">And, are the outcomes benificial to…</tspan><tspan x="0" y="117.6" style="&st5; &st0; &st27;">▶</tspan><tspan x="7.141" y="117.6" style="&st5; &st0; &st27; &st21;"> </tspan><tspan x="14.141" y="117.6" style="&st6; &st0; &st27;">basic needs?</tspan><tspan x="84.923" y="117.6" style="&st5; &st0; &st27;"> such as water or shelter</tspan><tspan x="0" y="134.4" style="&st5; &st0; &st27;">▶</tspan><tspan x="7.141" y="134.4" style="&st5; &st0; &st27; &st21;"> </tspan><tspan x="14.141" y="134.4" style="&st6; &st0; &st27;">security? </tspan><tspan x="69.51" y="134.4" style="&st5; &st0; &st27;">physically, financially…</tspan><tspan x="0" y="151.199" style="&st5; &st0; &st27;">▶</tspan><tspan x="7.141" y="151.199" style="&st5; &st0; &st27; &st21;"> </tspan><tspan x="14.141" y="151.199" style="&st6; &st0; &st27;">a prize? </tspan><tspan x="62.09" y="151.199" style="&st5; &st0; &st27;">gaining something special</tspan><tspan x="0" y="168" style="&st5; &st0; &st27;">▶</tspan><tspan x="7.141" y="168" style="&st5; &st0; &st27; &st21;"> </tspan><tspan x="14.141" y="168" style="&st6; &st0; &st27;">recognition? </tspan><tspan x="89.487" y="168" style="&st5; &st0; &st27;">promotion, access to an exclusivity…</tspan><tspan x="0" y="184.799" style="&st5; &st0; &st27;">▶</tspan><tspan x="7.141" y="184.799" style="&st5; &st0; &st27; &st21;"> </tspan><tspan x="14.141" y="184.799" style="&st6; &st0; &st27;">relationships? </tspan><tspan x="97.663" y="184.799" style="&st5; &st0; &st27;">sharing and celebrating together</tspan><tspan x="0" y="201.6" style="&st5; &st0; &st27;">▶</tspan><tspan x="7.141" y="201.6" style="&st5; &st0; &st27; &st21;"> </tspan><tspan x="14.141" y="201.6" style="&st6; &st0; &st27;">destiny? </tspan><tspan x="65.547" y="201.6" style="&st5; &st0; &st27;">and lifelong dreams</tspan></text>
	<rect x="1211.918" y="269.052" style="&st17;" width="444.663" height="166.834"/>
	<text transform="matrix(1 0 0 1 1211.918 284.0459)"><tspan x="0" y="0" style="&st40; &st24; &st30;">Call to Action</tspan><tspan x="0" y="21.6" style="&st5; &st0; &st29;">Now is time to convert ideas into actionnable material.</tspan><tspan x="0" y="43.199" style="&st5; &st0; &st29;">Are each heros of your audience going to act as…</tspan><tspan x="0" y="64.8" style="&st5; &st0; &st29;">▶</tspan><tspan x="9.18" y="64.8" style="&st5; &st0; &st29; &st22;"> </tspan><tspan x="18.18" y="64.8" style="&st6; &st0; &st29;">doers? </tspan><tspan x="70.451" y="64.8" style="&st5; &st0; &st28;">working hard to make things happen</tspan><tspan x="0" y="86.399" style="&st5; &st0; &st29;">▶</tspan><tspan x="9.18" y="86.399" style="&st5; &st0; &st29; &st22;"> </tspan><tspan x="18.18" y="86.399" style="&st6; &st0; &st29;">suppliers? </tspan><tspan x="97.162" y="86.399" style="&st5; &st0; &st28;">providing access to resources they own or control</tspan><tspan x="0" y="108" style="&st5; &st0; &st29;">▶</tspan><tspan x="9.18" y="108" style="&st5; &st0; &st29; &st22;"> </tspan><tspan x="18.18" y="108" style="&st6; &st0; &st29;">influencers? </tspan><tspan x="111.688" y="108" style="&st5; &st0; &st28;">speading your idea and gaining new supporters</tspan><tspan x="0" y="129.6" style="&st5; &st0; &st29;">▶</tspan><tspan x="9.18" y="129.6" style="&st5; &st0; &st29; &st22;"> </tspan><tspan x="18.18" y="129.6" style="&st6; &st0; &st29;">innovators? </tspan><tspan x="109.618" y="129.6" style="&st5; &st0; &st28;">creating new ideas, strengthening your own</tspan></text>
	<polygon style="&st3;" points="284.201,1129 362.994,992.526 441.787,1129 	"/>
	<text transform="matrix(1 0 0 1 337.2349 954.9258)"><tspan x="0" y="0" style="&st6; &st24; &st30;">Ethos</tspan><tspan x="-44.981" y="21.6" style="&st5; &st0; &st29;">ethics &amp; credibility</tspan></text>
	<text transform="matrix(1 0 0 1 208.1719 1108.5928)"><tspan x="0" y="0" style="&st6; &st24; &st30;">Pathos</tspan><tspan x="-79.67" y="21.6" style="&st5; &st0; &st29;">emotions &amp; feeling</tspan></text>
	<text transform="matrix(1 0 0 1 460.6665 1106.5928)"><tspan x="0" y="0" style="&st6; &st24; &st30;">Logos</tspan><tspan x="0" y="21.6" style="&st5; &st0; &st29;">facts &amp; analysis</tspan></text>
</g>
<g id="points">
	<circle style="&st12;" cx="251.121" cy="494.596" r="13.004"/>
	<polygon style="&st38;" points="1573.444,481.161 1601.222,494.596 1573.444,508.031 	"/>
	<polygon style="&st1;" points="97.739,631.152 125.517,644.588 97.739,658.023 	"/>
	<circle style="&st2;" cx="1364.065" cy="494.596" r="13.004"/>
</g>
<g id="texts">
	<text transform="matrix(1 0 0 1 1254.4082 1162.8262)"><tspan x="0" y="0" style="&st5; &st0; &st29;">sources: en.wiktionary.org, </tspan><tspan x="203.938" y="0" style="&st5; &st20; &st29;">Resonate</tspan><tspan x="266.36" y="0" style="&st5; &st0; &st29;"> by Nancy Duarte</tspan></text>
	<rect x="33.631" y="22.121" style="&st17;" width="1130.006" height="103.492"/>
	<text transform="matrix(1 0 0 1 33.6313 51.4365)"><tspan x="0" y="0" style="&st6; &st24; &st33;">pres</tspan><tspan x="62.567" y="0" style="&st5; &st24; &st33;">·</tspan><tspan x="71.567" y="0" style="&st6; &st24; &st33;">en</tspan><tspan x="108.071" y="0" style="&st5; &st24; &st33;">·</tspan><tspan x="117.071" y="0" style="&st6; &st24; &st33;">ta</tspan><tspan x="146.987" y="0" style="&st5; &st24; &st33;">·</tspan><tspan x="155.987" y="0" style="&st6; &st24; &st33;">tion</tspan><tspan x="215.458" y="0" style="&st6; &st0; &st34;"> </tspan><tspan x="225.958" y="0" style="&st5; &st0; &st32;">[ˌprēˌzenˈtāSHən]</tspan><tspan x="435.353" y="0" style="&st6; &st0; &st32;"> n.</tspan><tspan x="465.712" y="0" style="&st5; &st0; &st32; &st23;"> </tspan><tspan x="480.712" y="0" style="&st5; &st0; &st32;">1.</tspan><tspan x="497.452" y="0" style="&st6; &st0; &st32;"> A lecture or speech given in front of an audience</tspan><tspan x="1103.475" y="0" style="&st5; &st0; &st32; &st23;"> </tspan><tspan x="0" y="36" style="&st5; &st0; &st32;">2.</tspan><tspan x="20.459" y="36" style="&st6; &st0; &st32;"> A demonstration or display of a product or idea</tspan><tspan x="611.573" y="36" style="&st5; &st0; &st32; &st23;"> </tspan><tspan x="626.573" y="36" style="&st5; &st0; &st32;">3.</tspan><tspan x="646.612" y="36" style="&st6; &st0; &st32;"> A dramatic performance</tspan></text>
	<rect x="470.61" y="138.948" style="&st17;" width="332.232" height="144.104"/>
	<text transform="matrix(1 0 0 1 470.6099 151.8003)"><tspan x="0" y="0" style="&st6; &st24; &st29;">Refusal of the Call</tspan><tspan x="0" y="16.8" style="&st5; &st0; &st27;">Will they be reluctant to change because of their…</tspan><tspan x="0" y="33.6" style="&st5; &st0; &st27;">▶</tspan><tspan x="7.14" y="33.6" style="&st5; &st0; &st27; &st21;"> </tspan><tspan x="14.14" y="33.6" style="&st6; &st0; &st27;">comfort zone?</tspan><tspan x="95.704" y="33.6" style="&st5; &st0; &st27;"> and their tolerance to change</tspan><tspan x="0" y="50.4" style="&st5; &st0; &st27;">▶</tspan><tspan x="7.14" y="50.4" style="&st5; &st0; &st27; &st21;"> </tspan><tspan x="14.14" y="50.4" style="&st6; &st0; &st27;">fear? </tspan><tspan x="45.934" y="50.4" style="&st5; &st0; &st27;">of the unknow</tspan><tspan x="0" y="67.2" style="&st5; &st0; &st27;">▶</tspan><tspan x="7.14" y="67.2" style="&st5; &st0; &st27; &st21;"> </tspan><tspan x="14.14" y="67.2" style="&st6; &st0; &st27;">vulnerabilities? </tspan><tspan x="105.391" y="67.2" style="&st5; &st0; &st27;">and weaknesses, as human beings</tspan><tspan x="0" y="84" style="&st5; &st0; &st27;">▶</tspan><tspan x="7.14" y="84" style="&st5; &st0; &st27; &st21;"> </tspan><tspan x="14.14" y="84" style="&st6; &st0; &st27;">misunderstanding? </tspan><tspan x="126.951" y="84" style="&st5; &st0; &st27;">of the idea or its implications</tspan><tspan x="0" y="100.8" style="&st5; &st0; &st27;">▶</tspan><tspan x="7.14" y="100.8" style="&st5; &st0; &st27; &st21;"> </tspan><tspan x="14.14" y="100.8" style="&st6; &st0; &st27;">obstacles? </tspan><tspan x="75.375" y="100.8" style="&st5; &st0; &st27;">either mental or practical</tspan><tspan x="0" y="117.6" style="&st5; &st0; &st27;">▶</tspan><tspan x="7.14" y="117.6" style="&st5; &st0; &st27; &st21;"> </tspan><tspan x="14.14" y="117.6" style="&st6; &st0; &st27;">politics? </tspan><tspan x="65.211" y="117.6" style="&st5; &st0; &st27;">and the shift in power caused by your idea</tspan></text>
</g>
<g id="assets">
	<text transform="matrix(1 0 0 1 1776.7637 -267.8262)"><tspan x="0" y="0" style="&st8; &st0; &st30;">key idea:  CONTRAST</tspan><tspan x="0" y="25.2" style="&st8; &st0; &st30;">delivers an experience, not just information (emotion contrast)</tspan><tspan x="0" y="50.4" style="&st8; &st0; &st30;">contrast of</tspan><tspan x="0" y="75.6" style="&st8; &st0; &st30; &st16;">	</tspan><tspan x="36" y="75.6" style="&st8; &st0; &st30;">Delivery (traditional/nontraditional),</tspan><tspan x="0" y="100.8" style="&st8; &st0; &st30; &st16;">	</tspan><tspan x="36" y="100.8" style="&st8; &st0; &st30;">Emotion (story/facts, emotional/analytical),</tspan><tspan x="0" y="126" style="&st8; &st0; &st30; &st16;">	</tspan><tspan x="36" y="126" style="&st8; &st0; &st30;">Content (what is/what could be)</tspan><tspan x="0" y="151.2" style="&st8; &st0; &st30;">contrast between what is familiar/comforting and what is stimulating</tspan><tspan x="0" y="201.6" style="&st8; &st0; &st30;">**GOAL of the presentation: by meeting with the mentor (presenter),</tspan><tspan x="0" y="226.8" style="&st8; &st0; &st30;">crossing the threshold and entering the special world**</tspan><tspan x="0" y="277.2" style="&st8; &st0; &st30;">emotion contrast =&gt; outcome: Connect with people</tspan><tspan x="0" y="327.6" style="&st8; &st0; &st30;">The Big Idea: 1. a complete sentence 2. conveiying what’s at stake 3. in a unique point of view</tspan><tspan x="0" y="378" style="&st8; &st0; &st30;">Act 1</tspan><tspan x="0" y="403.2" style="&st8; &st0; &st30;">1. beginning: the state of things and of the hero “Ordinary World” / comfort zone</tspan><tspan x="0" y="428.4" style="&st8; &st0; &st30;">2. CLEAR turning point: “surprise effect”, envisioning a complete different outcome than what was thought</tspan><tspan x="0" y="453.6" style="&st8; &st0; &st30;">===&gt; capture the audience’s intrigue and interest: “Call to Adventure”</tspan><tspan x="0" y="478.8" style="&st8; &st0; &st30;">GAP to attain ===&gt; Act 2</tspan><tspan x="0" y="504" style="&st8; &st0; &st30;">3. building desire for a change of things and the hero =&gt; this is the Big Idea</tspan><tspan x="0" y="529.2" style="&st8; &st0; &st30;">4. showing how it can be fullfilled</tspan><tspan x="0" y="554.4" style="&st8; &st0; &st30;">BUT envisionning roadblocks =&gt; reluctance to change</tspan><tspan x="0" y="579.6" style="&st8; &st0; &st30;">why the refusal?</tspan><tspan x="0" y="630" style="&st8; &st0; &st30;">(for the call to adventure, what is the current state)</tspan><tspan x="0" y="655.2" style="&st8; &st0; &st30;">Understand: What is their</tspan><tspan x="0" y="680.4" style="&st8; &st0; &st30; &st16;">	</tspan><tspan x="36" y="680.4" style="&st8; &st0; &st30;">lifestyle? and how do they live</tspan><tspan x="0" y="705.601" style="&st8; &st0; &st30; &st16;">	</tspan><tspan x="36" y="705.601" style="&st8; &st0; &st30;">knowledge? and what you bring new in it</tspan><tspan x="0" y="730.8" style="&st8; &st0; &st30; &st16;">	</tspan><tspan x="36" y="730.8" style="&st8; &st0; &st30;">motivation and desire? that gets them out of bed</tspan><tspan x="0" y="756" style="&st8; &st0; &st30; &st16;">	</tspan><tspan x="36" y="756" style="&st8; &st0; &st30;">values? on which they are ready to spend money and time</tspan><tspan x="0" y="781.2" style="&st8; &st0; &st30; &st16;">	</tspan><tspan x="36" y="781.2" style="&st8; &st0; &st30;">example? they follow and that influence their life</tspan><tspan x="0" y="806.4" style="&st8; &st0; &st30; &st16;">	</tspan><tspan x="36" y="806.4" style="&st8; &st0; &st30;">conception of respect? and how you can make them feel respected</tspan><tspan x="0" y="856.8" style="&st8; &st0; &st30;">(for the navigation)</tspan><tspan x="0" y="882" style="&st8; &st0; &st30;">As a mentor, to accompagny they journey, are you going to bring them some</tspan><tspan x="0" y="907.2" style="&st8; &st0; &st30; &st16;">	</tspan><tspan x="36" y="907.2" style="&st8; &st0; &st30;">guidance? like new knowledge and insights</tspan><tspan x="0" y="932.4" style="&st8; &st0; &st30; &st16;">	</tspan><tspan x="36" y="932.4" style="&st8; &st0; &st30;">confidence? that may propel them</tspan><tspan x="0" y="957.601" style="&st8; &st0; &st30; &st16;">	</tspan><tspan x="36" y="957.601" style="&st8; &st0; &st30;">tools? they will use to suceed in the adventure</tspan><tspan x="0" y="1008" style="&st8; &st0; &st30;">In order to connect, do you share with them some</tspan><tspan x="0" y="1033.2" style="&st8; &st0; &st30; &st16;">	</tspan><tspan x="36" y="1033.2" style="&st8; &st0; &st30;">experience? life memories or interests</tspan><tspan x="0" y="1058.4" style="&st8; &st0; &st30; &st16;">	</tspan><tspan x="36" y="1058.4" style="&st8; &st0; &st30;">goals? you are aiming for the future</tspan><tspan x="0" y="1083.601" style="&st8; &st0; &st30; &st16;">	</tspan><tspan x="36" y="1083.601" style="&st8; &st0; &st30;">qualifications?</tspan><tspan x="0" y="1134" style="&st8; &st0; &st30;">Will do they have to</tspan><tspan x="0" y="1159.2" style="&st8; &st0; &st30; &st16;">	</tspan><tspan x="36" y="1159.2" style="&st8; &st0; &st30;">sacrifice? beliefs, ideals, or even time and money</tspan><tspan x="0" y="1184.4" style="&st8; &st0; &st30; &st16;">	</tspan><tspan x="36" y="1184.4" style="&st8; &st0; &st30;">take some risk? and confront emotional issues</tspan><tspan x="0" y="1234.8" style="&st8; &st0; &st30;">(refusal to the call)</tspan><tspan x="0" y="1260" style="&st8; &st0; &st30;">How are they are going to deal with their</tspan><tspan x="0" y="1285.2" style="&st8; &st0; &st30; &st16;">	</tspan><tspan x="36" y="1285.2" style="&st8; &st0; &st30;">comfort zone? and their tolerance for change</tspan><tspan x="0" y="1310.399" style="&st8; &st0; &st30; &st16;">	</tspan><tspan x="36" y="1310.399" style="&st8; &st0; &st30;">fear?</tspan><tspan x="0" y="1335.6" style="&st8; &st0; &st30; &st16;">	</tspan><tspan x="36" y="1335.6" style="&st8; &st0; &st30;">vulnerabilities? and weaknesses as humans</tspan><tspan x="0" y="1360.8" style="&st8; &st0; &st30; &st16;">	</tspan><tspan x="36" y="1360.8" style="&st8; &st0; &st30;">misunderstanding? of the proposed change and implications</tspan><tspan x="0" y="1386" style="&st8; &st0; &st30; &st16;">	</tspan><tspan x="36" y="1386" style="&st8; &st0; &st30;">obstacles? that stop them to commiting, mental or practical</tspan><tspan x="0" y="1411.199" style="&st8; &st0; &st30; &st16;">	</tspan><tspan x="36" y="1411.199" style="&st8; &st0; &st30;">politics? and the shift in power caused by your idea</tspan><tspan x="0" y="1461.6" style="&st8; &st0; &st30;">(the new bliss)</tspan><tspan x="0" y="1486.8" style="&st8; &st0; &st30;">What is the benefit to</tspan><tspan x="0" y="1511.999" style="&st8; &st0; &st30; &st16;">	</tspan><tspan x="36" y="1511.999" style="&st8; &st0; &st30;">them? personnaly, materially or emotionnaly</tspan><tspan x="0" y="1537.199" style="&st8; &st0; &st30; &st16;">	</tspan><tspan x="36" y="1537.199" style="&st8; &st0; &st30;">their sphere of influence? such as friends, peers, students</tspan><tspan x="0" y="1562.399" style="&st8; &st0; &st30; &st16;">	</tspan><tspan x="36" y="1562.399" style="&st8; &st0; &st30;">mankind?</tspan><tspan x="0" y="1612.799" style="&st8; &st0; &st30;">Are the outcomes beneficial to</tspan><tspan x="0" y="1637.999" style="&st8; &st0; &st30; &st16;">	</tspan><tspan x="36" y="1637.999" style="&st8; &st0; &st30;">basic needs? such as water and shelter</tspan><tspan x="0" y="1663.199" style="&st8; &st0; &st30; &st16;">	</tspan><tspan x="36" y="1663.199" style="&st8; &st0; &st30;">security? physically, financial or technically</tspan><tspan x="0" y="1688.399" style="&st8; &st0; &st30; &st16;">	</tspan><tspan x="36" y="1688.399" style="&st8; &st0; &st30;">savings? in time and money</tspan><tspan x="0" y="1713.599" style="&st8; &st0; &st30; &st16;">	</tspan><tspan x="36" y="1713.599" style="&st8; &st0; &st30;">prize? and gaining something</tspan><tspan x="0" y="1738.799" style="&st8; &st0; &st30; &st16;">	</tspan><tspan x="36" y="1738.799" style="&st8; &st0; &st30;">recognition? promotion or access to exclusivity</tspan><tspan x="0" y="1763.999" style="&st8; &st0; &st30; &st16;">	</tspan><tspan x="36" y="1763.999" style="&st8; &st0; &st30;">relationship? sharing and celebrating</tspan><tspan x="0" y="1789.199" style="&st8; &st0; &st30; &st16;">	</tspan><tspan x="36" y="1789.199" style="&st8; &st0; &st30;">destiny? and lifelong dreams</tspan><tspan x="0" y="1814.398" style="&st8; &st0; &st30; &st16;">	</tspan><tspan x="0" y="1889.999" style="&st8; &st0; &st30;">what solutions are possible? need to answer the “Refusal of the Call”</tspan><tspan x="0" y="1940.398" style="&st8; &st0; &st30;">STAR moment? connecting with the audience at the highest degree</tspan><tspan x="0" y="1990.799" style="&st8; &st0; &st30;">5. second turning point</tspan><tspan x="0" y="2015.998" style="&st8; &st0; &st30;">Act 3</tspan><tspan x="0" y="2041.198" style="&st8; &st0; &st30;">6. call to action!!! what to do for: the DOERS, the SUPPLIERS, the INFLUENCERS, the INNOVATORS</tspan><tspan x="0" y="2066.398" style="&st8; &st0; &st30;">7. the “new bliss”: what could be the state of things</tspan><tspan x="0" y="2091.599" style="&st8; &st0; &st30;">8. what are the rewards for 1. the hero? 2. it sphere? 3. the mankind?</tspan><tspan x="0" y="2141.998" style="&st8; &st0; &st30;">this is NOT the end!!! everything still is to do =&gt; now entering the special world</tspan><tspan x="0" y="2167.198" style="&st8; &st0; &st30;">=&gt; **commitment**</tspan></text>
	<rect x="123" y="153" style="&st17;" width="285" height="149"/>
	<text transform="matrix(1 0 0 1 123 167.9937)"><tspan x="0" y="0" style="&st15; &st24; &st30;">The Big Idea</tspan><tspan x="0" y="21.6" style="&st5; &st0; &st29;">It all starts with it; it leads every </tspan><tspan x="0" y="43.2" style="&st5; &st0; &st29;">message of the presentation. This is…</tspan><tspan x="0" y="64.8" style="&st5; &st0; &st29;">1. </tspan><tspan x="14.544" y="64.8" style="&st6; &st0; &st29;">a complete sentence</tspan><tspan x="0" y="86.4" style="&st5; &st0; &st29;">2. </tspan><tspan x="16.776" y="86.4" style="&st6; &st0; &st29;">conveying what’s at stake,</tspan><tspan x="0" y="108" style="&st5; &st0; &st29;">3. </tspan><tspan x="16.524" y="108" style="&st6; &st0; &st29;">in a unique point of view.</tspan></text>
	<line style="&st43;" x1="919.587" y1="997" x2="919.587" y2="708.313"/>
	<line style="&st43;" x1="1030.077" y1="1108.593" x2="1030.077" y2="708.313"/>
	
		<rect x="911.337" y="700.064" transform="matrix(0.7071 0.7071 -0.7071 0.7071 770.194 -442.7859)" style="&st35;" width="16.5" height="16.5"/>
	
		<rect x="1021.827" y="700.064" transform="matrix(0.7071 0.7071 -0.7071 0.7071 802.5559 -520.9143)" style="&st42;" width="16.5" height="16.5"/>
	<line style="&st13;" x1="877.154" y1="592" x2="877.154" y2="684.667"/>
	
		<rect x="868.904" y="627.75" transform="matrix(-0.7071 0.7071 -0.7071 -0.7071 1947.116 465.4781)" style="&st19;" width="16.5" height="16.5"/>
	<polyline style="&st43;" points="1171,494.949 1171,283.052 921,283.052 	"/>
	<polyline style="&st43;" points="1460.556,490.305 1460.556,696 1163.666,696 	"/>
	<rect x="859.063" y="332" style="&st17;" width="264.938" height="114.603"/>
	<text transform="matrix(1 0 0 1 859.0625 344.8516)"><tspan x="0" y="0" style="&st6; &st24; &st29;">Common Ground</tspan><tspan x="0" y="16.8" style="&st5; &st0; &st27;">To connect with the audience,</tspan><tspan x="0" y="33.601" style="&st5; &st0; &st27;">will you share some…</tspan><tspan x="0" y="50.4" style="&st5; &st0; &st27;">▶</tspan><tspan x="7.141" y="50.4" style="&st5; &st0; &st27; &st21;"> </tspan><tspan x="14.141" y="50.4" style="&st6; &st0; &st27;">experience?</tspan><tspan x="81.969" y="50.4" style="&st5; &st0; &st27;"> life memories or interests</tspan><tspan x="0" y="67.2" style="&st5; &st0; &st27;">▶</tspan><tspan x="7.141" y="67.2" style="&st5; &st0; &st27; &st21;"> </tspan><tspan x="14.141" y="67.2" style="&st6; &st0; &st27;">goals? </tspan><tspan x="53.34" y="67.2" style="&st5; &st0; &st27;">that you’re targeting long-term</tspan><tspan x="0" y="84" style="&st5; &st0; &st27;">▶</tspan><tspan x="7.141" y="84" style="&st5; &st0; &st27; &st21;"> </tspan><tspan x="14.141" y="84" style="&st6; &st0; &st27;">qualification? </tspan><tspan x="95.186" y="84" style="&st5; &st0; &st27;">you may have in common</tspan></text>
	<line style="&st43;" x1="845.901" y1="494.949" x2="845.901" y2="323.603"/>
	<circle style="&st37;" cx="1460.556" cy="494.487" r="8.57"/>
	<circle style="&st37;" cx="1171" cy="494.487" r="8.57"/>
	<circle style="&st37;" cx="845.901" cy="494.949" r="8.57"/>
	<circle style="&st37;" cx="184.628" cy="644.588" r="8.57"/>
	<polyline style="&st43;" points="729.595,644.146 729.595,284.052 464,284.052 	"/>
	<circle style="&st37;" cx="729.595" cy="644.146" r="8.57"/>
	<polyline style="&st43;" points="1364.065,486.277 1364.065,430 1205,430 	"/>
</g>
</svg>
